<svg width="15" height="16" viewBox="0 0 15 16" fill="none" xmlns="http://www.w3.org/2000/svg">
<g clip-path="url(#clip0_2001_181)">
<path d="M14.8131 16.0202C15.0084 16.2155 15.325 16.2155 15.5202 16.0202C15.7155 15.825 15.7155 15.5084 15.5202 15.3131L14.8131 16.0202ZM12.1667 7.33334C12.1667 10.2789 9.77886 12.6667 6.83334 12.6667V13.6667C10.3311 13.6667 13.1667 10.8311 13.1667 7.33334H12.1667ZM6.83334 12.6667C3.88782 12.6667 1.5 10.2789 1.5 7.33334H0.5C0.5 10.8311 3.33553 13.6667 6.83334 13.6667V12.6667ZM1.5 7.33334C1.5 4.38782 3.88782 2 6.83334 2V1C3.33553 1 0.5 3.83553 0.5 7.33334H1.5ZM6.83334 2C9.77886 2 12.1667 4.38782 12.1667 7.33334H13.1667C13.1667 3.83553 10.3311 1 6.83334 1V2ZM10.6465 11.8536L14.8131 16.0202L15.5202 15.3131L11.3536 11.1465L10.6465 11.8536Z" fill="#666666"/>
</g>
<defs>
<clipPath id="clip0_2001_181">
<rect width="15" height="15" fill="white" transform="translate(0 0.5)"/>
</clipPath>
</defs>
</svg>
